<svg xmlns="http://www.w3.org/2000/svg" xmlns:xlink="http://www.w3.org/1999/xlink" version="1.1" width="216" height="176.4" viewBox="0 0 216 176.4">
<defs>
<clipPath id="clip_0">
<path transform="matrix(1,0,0,-1,0,176.4)" d="M49.68 33.516H211.68V158.76001H49.68Z"/>
</clipPath>
<clipPath id="clip_1">
<path transform="matrix(1,0,0,-1,0,176.4)" d="M49.68 33.516H211.68V158.76001H49.68Z"/>
</clipPath>
<clipPath id="clip_2">
<path transform="matrix(1,0,0,-1,0,176.4)" d="M49.68 33.516H211.68V158.76001H49.68Z"/>
</clipPath>
<clipPath id="clip_3">
<path transform="matrix(1,0,0,-1,0,176.4)" d="M49.68 33.516H211.68V158.76001H49.68Z"/>
</clipPath>
<clipPath id="clip_4">
<path transform="matrix(1,0,0,-1,0,176.4)" d="M49.68 33.516H211.68V158.76001H49.68Z"/>
</clipPath>
<clipPath id="clip_5">
<path transform="matrix(1,0,0,-1,0,176.4)" d="M49.68 33.516H211.68V158.76001H49.68Z"/>
</clipPath>
<clipPath id="clip_6">
<path transform="matrix(1,0,0,-1,0,176.4)" d="M49.68 33.516H211.68V158.76001H49.68Z"/>
</clipPath>
<clipPath id="clip_7">
<path transform="matrix(1,0,0,-1,0,176.4)" d="M49.68 33.516H211.68V158.76001H49.68Z"/>
</clipPath>
<clipPath id="clip_8">
<path transform="matrix(1,0,0,-1,0,176.4)" d="M49.68 33.516H211.68V158.76001H49.68Z"/>
</clipPath>
<clipPath id="clip_9">
<path transform="matrix(1,0,0,-1,0,176.4)" d="M49.68 33.516H211.68V158.76001H49.68Z"/>
</clipPath>
<clipPath id="clip_10">
<path transform="matrix(1,0,0,-1,0,176.4)" d="M49.68 33.516H211.68V158.76001H49.68Z"/>
</clipPath>
<clipPath id="clip_11">
<path transform="matrix(1,0,0,-1,0,176.4)" d="M49.68 33.516H211.68V158.76001H49.68Z"/>
</clipPath>
<clipPath id="clip_12">
<path transform="matrix(1,0,0,-1,0,176.4)" d="M49.68 33.516H211.68V158.76001H49.68Z"/>
</clipPath>
<clipPath id="clip_13">
<path transform="matrix(1,0,0,-1,0,176.4)" d="M49.68 33.516H211.68V158.76001H49.68Z"/>
</clipPath>
</defs>
<path transform="matrix(1,0,0,-1,0,176.4)" d="M0 0H216V176.4H0Z" fill="#ffffff"/>
<path transform="matrix(1,0,0,-1,0,176.4)" d="M49.68 33.516H211.68V158.76H49.68Z" fill="#ffffff"/>
<g clip-path="url(#clip_0)">
<path transform="matrix(1,0,0,-1,0,176.4)" d="M53.15143 33.516H69.35143V152.796H53.15143Z" fill="#5f5f5f"/>
</g>
<g clip-path="url(#clip_1)">
<path transform="matrix(1,0,0,-1,0,176.4)" d="M76.29429 33.516H92.494289V137.33605H76.29429Z" fill="#5f5f5f"/>
</g>
<g clip-path="url(#clip_2)">
<path transform="matrix(1,0,0,-1,0,176.4)" d="M99.43714 33.516H115.637149V72.64605H99.43714Z" fill="#5f5f5f"/>
</g>
<g clip-path="url(#clip_3)">
<path transform="matrix(1,0,0,-1,0,176.4)" d="M122.58 33.516H138.78V44.666704H122.58Z" fill="#5f5f5f"/>
</g>
<g clip-path="url(#clip_4)">
<path transform="matrix(1,0,0,-1,0,176.4)" d="M145.72286 33.516H161.92285V36.3615H145.72286Z" fill="#5f5f5f"/>
</g>
<g clip-path="url(#clip_5)">
<path transform="matrix(1,0,0,-1,0,176.4)" d="M168.8657 33.516H185.06572V34.331056H168.8657Z" fill="#5f5f5f"/>
</g>
<g clip-path="url(#clip_6)">
<path transform="matrix(1,0,0,-1,0,176.4)" d="M192.00858 33.516H208.20858V33.734579H192.00858Z" fill="#5f5f5f"/>
</g>
<g clip-path="url(#clip_7)">
<path transform="matrix(1,0,0,-1,0,176.4)" d="M215.15143 33.516H231.35143V33.556169H215.15143Z" fill="#5f5f5f"/>
</g>
<g clip-path="url(#clip_8)">
<path transform="matrix(1,0,0,-1,0,176.4)" d="M238.29428 33.516H254.4943V33.52872H238.29428Z" fill="#5f5f5f"/>
</g>
<g clip-path="url(#clip_9)">
<path transform="matrix(1,0,0,-1,0,176.4)" d="M261.43714 33.516H277.63716V33.517675H261.43714Z" fill="#5f5f5f"/>
</g>
<path transform="matrix(1,0,0,-1,0,176.4)" d="M61.25143 33.516V30.016"/>
<path transform="matrix(1,0,0,-1,0,176.4)" stroke-width=".8" stroke-linecap="butt" stroke-linejoin="round" fill="none" stroke="#000000" d="M61.25143 33.516V30.016"/>
<text xml:space="preserve" transform="matrix(1 0 -0 1 58.07174 157.47774)" font-size="10" font-family="DejaVuSans"><tspan y="0" x="0">0</tspan></text>
<path transform="matrix(1,0,0,-1,0,176.4)" d="M84.39429 33.516V30.016"/>
<path transform="matrix(1,0,0,-1,0,176.4)" stroke-width=".8" stroke-linecap="butt" stroke-linejoin="round" fill="none" stroke="#000000" d="M84.39429 33.516V30.016"/>
<text xml:space="preserve" transform="matrix(1 0 -0 1 81.2146 157.47774)" font-size="10" font-family="DejaVuSans"><tspan y="0" x="0">1</tspan></text>
<path transform="matrix(1,0,0,-1,0,176.4)" d="M107.53714 33.516V30.016"/>
<path transform="matrix(1,0,0,-1,0,176.4)" stroke-width=".8" stroke-linecap="butt" stroke-linejoin="round" fill="none" stroke="#000000" d="M107.53714 33.516V30.016"/>
<text xml:space="preserve" transform="matrix(1 0 -0 1 104.35745 157.47774)" font-size="10" font-family="DejaVuSans"><tspan y="0" x="0">2</tspan></text>
<path transform="matrix(1,0,0,-1,0,176.4)" d="M130.68 33.516V30.016"/>
<path transform="matrix(1,0,0,-1,0,176.4)" stroke-width=".8" stroke-linecap="butt" stroke-linejoin="round" fill="none" stroke="#000000" d="M130.68 33.516V30.016"/>
<text xml:space="preserve" transform="matrix(1 0 -0 1 127.50031 157.47774)" font-size="10" font-family="DejaVuSans"><tspan y="0" x="0">3</tspan></text>
<path transform="matrix(1,0,0,-1,0,176.4)" d="M153.82286 33.516V30.016"/>
<path transform="matrix(1,0,0,-1,0,176.4)" stroke-width=".8" stroke-linecap="butt" stroke-linejoin="round" fill="none" stroke="#000000" d="M153.82286 33.516V30.016"/>
<text xml:space="preserve" transform="matrix(1 0 -0 1 150.64318 157.47774)" font-size="10" font-family="DejaVuSans"><tspan y="0" x="0">4</tspan></text>
<path transform="matrix(1,0,0,-1,0,176.4)" d="M176.96572 33.516V30.016"/>
<path transform="matrix(1,0,0,-1,0,176.4)" stroke-width=".8" stroke-linecap="butt" stroke-linejoin="round" fill="none" stroke="#000000" d="M176.96572 33.516V30.016"/>
<text xml:space="preserve" transform="matrix(1 0 -0 1 173.78603 157.47774)" font-size="10" font-family="DejaVuSans"><tspan y="0" x="0">5</tspan></text>
<path transform="matrix(1,0,0,-1,0,176.4)" d="M200.10857 33.516V30.016"/>
<path transform="matrix(1,0,0,-1,0,176.4)" stroke-width=".8" stroke-linecap="butt" stroke-linejoin="round" fill="none" stroke="#000000" d="M200.10857 33.516V30.016"/>
<text xml:space="preserve" transform="matrix(1 0 -0 1 196.92888 157.47774)" font-size="10" font-family="DejaVuSans"><tspan y="0" x="0">6</tspan></text>
<text xml:space="preserve" transform="matrix(1 0 -0 1 93.18 171.55587)" font-size="10" font-family="DejaVuSans"><tspan y="-.40625" x="0 2.9492188 6.870117 13.022461 17.13379 23.261719 27.182618 29.960938 36.0791 42.416994 45.595705 50.805665 54.726564 60.878908 67.22656">Iteration step </tspan></text>
<text xml:space="preserve" transform="matrix(1 0 -0 1 93.18 171.55587)" font-size="10" font-family="DejaVuSans"><tspan y="-.40625" x="70.40527">t</tspan></text>
<g clip-path="url(#clip_10)">
<path transform="matrix(1,0,0,-1,0,176.4)" stroke-width=".5" stroke-linecap="butt" stroke-dasharray="1.85,.8" stroke-linejoin="round" fill="none" stroke="#929292" d="M49.68 33.516H211.68"/>
</g>
<path transform="matrix(1,0,0,-1,0,176.4)" d="M49.68 33.516H46.18"/>
<path transform="matrix(1,0,0,-1,0,176.4)" stroke-width=".8" stroke-linecap="butt" stroke-linejoin="round" fill="none" stroke="#000000" d="M49.68 33.516H46.18"/>
<text xml:space="preserve" transform="matrix(0 -1 1 0 40.601877 146.06368)" font-size="10" font-family="DejaVuSans"><tspan y="0" x="0">0</tspan></text>
<g clip-path="url(#clip_11)">
<path transform="matrix(1,0,0,-1,0,176.4)" stroke-width=".5" stroke-linecap="butt" stroke-dasharray="1.85,.8" stroke-linejoin="round" fill="none" stroke="#929292" d="M49.68 72.344127H211.68"/>
</g>
<path transform="matrix(1,0,0,-1,0,176.4)" d="M49.68 72.344127H46.18"/>
<path transform="matrix(1,0,0,-1,0,176.4)" stroke-width=".8" stroke-linecap="butt" stroke-linejoin="round" fill="none" stroke="#000000" d="M49.68 72.344127H46.18"/>
<text xml:space="preserve" transform="matrix(0 -1 1 0 40.601877 116.77462)" font-size="10" font-family="DejaVuSans"><tspan y="0" x="0 6.3600008 12.720001 19.080002">1000</tspan></text>
<g clip-path="url(#clip_12)">
<path transform="matrix(1,0,0,-1,0,176.4)" stroke-width=".5" stroke-linecap="butt" stroke-dasharray="1.85,.8" stroke-linejoin="round" fill="none" stroke="#929292" d="M49.68 111.17225H211.68"/>
</g>
<path transform="matrix(1,0,0,-1,0,176.4)" d="M49.68 111.17225H46.18"/>
<path transform="matrix(1,0,0,-1,0,176.4)" stroke-width=".8" stroke-linecap="butt" stroke-linejoin="round" fill="none" stroke="#000000" d="M49.68 111.17225H46.18"/>
<text xml:space="preserve" transform="matrix(0 -1 1 0 40.601877 77.946498)" font-size="10" font-family="DejaVuSans"><tspan y="0" x="0 6.3600008 12.720001 19.080002">2000</tspan></text>
<g clip-path="url(#clip_13)">
<path transform="matrix(1,0,0,-1,0,176.4)" stroke-width=".5" stroke-linecap="butt" stroke-dasharray="1.85,.8" stroke-linejoin="round" fill="none" stroke="#929292" d="M49.68 150.00038H211.68"/>
</g>
<path transform="matrix(1,0,0,-1,0,176.4)" d="M49.68 150.00038H46.18"/>
<path transform="matrix(1,0,0,-1,0,176.4)" stroke-width=".8" stroke-linecap="butt" stroke-linejoin="round" fill="none" stroke="#000000" d="M49.68 150.00038H46.18"/>
<text xml:space="preserve" transform="matrix(0 -1 1 0 40.601877 39.118364)" font-size="10" font-family="DejaVuSans"><tspan y="0" x="0 6.3600008 12.720001 19.080002">3000</tspan></text>
<text xml:space="preserve" transform="matrix(0 -1 1 0 15.739375 128.30887)" font-size="10" font-family="DejaVuSans"><tspan y="0" x="0 6.261875 12.181875 18.331875 22.441876 28.571877 34.921876 41.071878 44.251878 50.591878 56.931879 66.671878 73.02187 79.171878 83.281879 86.461879 92.58188">Average number of</tspan></text>
<text xml:space="preserve" transform="matrix(0 -1 1 0 26.93 139.74637)" font-size="10" font-family="DejaVuSans"><tspan y="0" x="0 6.13 11.63 15.55 18.33 24.25 30.4 33.58 39.08 45.2 49.138128 53.029378 59.17938 64.38938 70.73938 76.85938 83.19939 89.549388 95.69939 102.03938 107.53938 113.689388">active correspondences</tspan></text>
<path transform="matrix(1,0,0,-1,0,176.4)" stroke-width=".8" stroke-linecap="square" stroke-miterlimit="10" stroke-linejoin="miter" fill="none" stroke="#000000" d="M49.68 33.516V158.76"/>
<path transform="matrix(1,0,0,-1,0,176.4)" stroke-width=".8" stroke-linecap="square" stroke-miterlimit="10" stroke-linejoin="miter" fill="none" stroke="#000000" d="M211.68 33.516V158.76"/>
<path transform="matrix(1,0,0,-1,0,176.4)" stroke-width=".8" stroke-linecap="square" stroke-miterlimit="10" stroke-linejoin="miter" fill="none" stroke="#000000" d="M49.68 33.516H211.68"/>
<path transform="matrix(1,0,0,-1,0,176.4)" stroke-width=".8" stroke-linecap="square" stroke-miterlimit="10" stroke-linejoin="miter" fill="none" stroke="#000000" d="M49.68 158.76H211.68"/>
<text xml:space="preserve" transform="matrix(1 0 -0 1 57.094064 11.639999)" font-size="12" font-family="DejaVuSans"><tspan y="0" x="0 5.8062508 13.1622509 19.414252 24.118252 27.934252 32.616254 39.996255 46.596254 49.93225 57.552255 62.234254 69.578258 76.17825 83.534259 86.870258 90.68626 102.37426 109.73026 114.434268 121.03426 128.64226 131.97826 139.58626">Fast reciprocal matching</tspan></text>
</svg>
